<svg width="64" height="64" viewBox="0 0 64 64" fill="none" xmlns="http://www.w3.org/2000/svg">
<path d="M35.8304 7.80796C36.7306 6.9081 37.9513 6.40259 39.224 6.40259C40.4968 6.40259 41.7175 6.9081 42.6176 7.80796L56.1952 21.3824C57.0951 22.2825 57.6006 23.5032 57.6006 24.776C57.6006 26.0487 57.0951 27.2694 56.1952 28.1696L29.9648 54.4H46.4C46.8244 54.4 47.2314 54.5685 47.5314 54.8686C47.8315 55.1687 48 55.5756 48 56C48 56.4243 47.8315 56.8313 47.5314 57.1313C47.2314 57.4314 46.8244 57.6 46.4 57.6H25.024C24.3519 57.6357 23.6798 57.5296 23.0513 57.2887C22.4229 57.0478 21.8521 56.6774 21.376 56.2016L7.79844 42.624C6.89858 41.7238 6.39307 40.5032 6.39307 39.2304C6.39307 37.9576 6.89858 36.7369 7.79844 35.8368L35.8304 7.80796ZM40.3552 10.0672C40.0552 9.76721 39.6483 9.5987 39.224 9.5987C38.7998 9.5987 38.3929 9.76721 38.0928 10.0672L17.7216 30.4384L33.5616 46.2784L53.9328 25.9072C54.2328 25.6071 54.4013 25.2002 54.4013 24.776C54.4013 24.3517 54.2328 23.9448 53.9328 23.6448L40.3552 10.0672ZM31.2992 48.544L15.4592 32.704L10.0608 38.1024C9.76089 38.4024 9.59238 38.8093 9.59238 39.2336C9.59238 39.6578 9.76089 40.0647 10.0608 40.3648L23.6384 53.9424C23.9385 54.2423 24.3454 54.4108 24.7696 54.4108C25.1939 54.4108 25.6008 54.2423 25.9008 53.9424L31.2992 48.544Z" fill="#888888"/>
</svg>
