<?xml version="1.0" encoding="UTF-8"?>
<svg id="_레이어_2" data-name="레이어 2" xmlns="http://www.w3.org/2000/svg" viewBox="0 0 85.04 85.04">
  <defs>
    <style>
      .cls-1 {
        fill: #ccc;
      }

      .cls-2 {
        fill: none;
      }

      .cls-3 {
        fill: #dcdddd;
      }

      .cls-4 {
        fill: #008156;
      }
    </style>
  </defs>
  <g id="_레이어_1-2" data-name="레이어 1">
    <g>
      <path class="cls-4" d="M37.5,6.63l.03.03.03-.02c.37-.33.53-.66.49-1.01h0c-.02-.18-.09-.32-.2-.42-.11-.1-.26-.14-.42-.12-.27.03-.53.28-.49.63.05.4.34.7.56.91Z"/>
      <g>
        <path class="cls-2" d="M37.5,6.63l.03.03.03-.02c.37-.33.53-.66.49-1.01h0c-.02-.18-.09-.32-.2-.42-.11-.1-.26-.14-.42-.12-.27.03-.53.28-.49.63.05.4.34.7.56.91Z"/>
        <path class="cls-1" d="M42.51,0C19.08,0,0,19.08,0,42.52s19.08,42.52,42.51,42.52,42.52-19.08,42.52-42.52S65.96,0,42.51,0ZM42.51,83.13C20.13,83.13,1.91,64.9,1.91,42.52S20.13,1.91,42.51,1.91s40.62,18.22,40.62,40.61-18.23,40.61-40.62,40.61Z"/>
        <path class="cls-1" d="M12.62,42.53c0,16.48,13.41,29.89,29.9,29.89s29.9-13.42,29.9-29.89-13.41-29.91-29.9-29.91-29.9,13.43-29.9,29.91ZM19,28.29h19.97s-.01,1.49-.01,1.49l-20.81.03c.27-.52.55-1.03.84-1.52ZM17.12,32.04h21.83s0,1.54,0,1.54h-22.41c.17-.53.38-1.04.58-1.54ZM15.88,35.8h23.06v.45c-.18,4.28-3.74,4.22-3.74,4.22l-20.07.03c.11-1.61.35-3.19.75-4.7ZM17.25,53.34l14.16.03v.1c-2.4,4.43-7.15,6.87-9.07,7.71-2.1-2.3-3.83-4.92-5.09-7.84ZM24.22,63.03c3.44-1.54,5.75-3.6,7.2-5.29v9.92c-2.64-1.16-5.06-2.73-7.2-4.63ZM42.52,70c-1.29,0-2.55-.09-3.8-.27.85-.7,2.13-1.86,3.68-3.54,1.46,1.48,2.85,2.7,3.86,3.56-1.23.16-2.47.25-3.74.25ZM37.01,67.95v-8.49c1.13,1.85,2.49,3.57,3.86,5.09-1.12,1.18-2.41,2.33-3.86,3.39ZM47.74,68.01c-1.49-1.02-2.79-2.2-3.94-3.42,1.25-1.48,2.58-3.27,3.94-5.35v8.77ZM42.34,62.89c-2.97-3.72-4.62-7.63-5.32-9.52h10.72c-.81,2.24-2.47,5.93-5.4,9.52ZM53.36,67.78l.05-10.28c2.48,2.87,5.84,4.53,7.67,5.29-2.25,2.07-4.85,3.77-7.72,4.99ZM62.9,60.96c-5.66-2.16-8.49-5.95-9.48-7.56v-.03h14.36c-1.21,2.81-2.86,5.36-4.88,7.58ZM68.76,50.73h-15.33s.01-5.33.01-5.33h-5.67s0,5.35,0,5.35h-10.77v-5.28h-5.59s0,5.29,0,5.29h-15.11c-.78-2.49-1.22-5.13-1.26-7.88h21.97c4.06-.24,5.37-3.03,5.37-3.03,1.87,3.05,5.6,3.03,5.6,3.03h22.02c-.04,2.73-.46,5.36-1.24,7.84ZM69.93,40.47h-20.29c-3.73-.38-4.03-4.35-4.03-4.35l-.02-.04v-.28h23.58c.38,1.51.63,3.07.75,4.67ZM68.52,33.59h-22.94v-1.57l22.33-.03c.23.53.42,1.06.61,1.6ZM66.86,29.76l-21.29.02v-1.5s20.46-.02,20.46-.02c.29.49.58,1,.83,1.51ZM64.6,26.14h-19.03v-1.54s17.79,0,17.79,0c.44.5.86,1.01,1.25,1.54ZM61.38,22.54h-15.81l7.15-5.55c3.25,1.3,6.18,3.19,8.66,5.55ZM42.52,15.04c2.09,0,4.11.24,6.07.68l-6.23,4.66-6.24-4.58c2.06-.49,4.2-.76,6.4-.76ZM31.7,17.25l7.29,5.27v.03h-15.33c2.33-2.21,5.05-4.01,8.04-5.3ZM38.98,24.6v1.54h-18.53c.39-.53.81-1.04,1.23-1.54h17.31Z"/>
        <path class="cls-4" d="M38.97,26.14v-1.54s-17.3,0-17.3,0c-.42.5-.84,1.01-1.23,1.54h18.52Z"/>
        <path class="cls-4" d="M38.97,28.28h-19.97c-.3.5-.57,1.01-.84,1.53l20.81-.03v-1.5Z"/>
        <path class="cls-4" d="M38.95,32.03h-21.83c-.21.51-.41,1.02-.58,1.54h22.41s0-1.54,0-1.54Z"/>
        <path class="cls-4" d="M48.59,15.71c-1.96-.44-3.98-.68-6.07-.68-2.2,0-4.34.27-6.4.76l6.24,4.58,6.23-4.66Z"/>
        <path class="cls-4" d="M38.99,22.51l-7.29-5.27c-2.99,1.28-5.71,3.08-8.04,5.3h15.33v-.03Z"/>
        <path class="cls-4" d="M38.94,36.25v-.45H15.88c-.4,1.52-.64,3.09-.75,4.7l20.07-.03s3.57.05,3.74-4.22Z"/>
        <path class="cls-4" d="M61.38,22.54c-2.49-2.36-5.42-4.25-8.66-5.55l-7.15,5.55h15.81Z"/>
        <path class="cls-4" d="M40.87,64.56c-1.37-1.52-2.73-3.25-3.86-5.09v8.49c1.45-1.06,2.74-2.21,3.86-3.39Z"/>
        <path class="cls-4" d="M31.41,53.47v-.1l-14.16-.03c1.26,2.92,2.98,5.54,5.09,7.84,1.92-.84,6.68-3.28,9.07-7.71Z"/>
        <path class="cls-4" d="M42.4,66.19c-1.54,1.69-2.83,2.85-3.68,3.54,1.25.18,2.51.27,3.8.27s2.51-.09,3.74-.25c-1.01-.85-2.4-2.08-3.86-3.56Z"/>
        <path class="cls-4" d="M42.37,39.86s-1.31,2.78-5.37,3.04H15.04c.04,2.74.48,5.38,1.26,7.88h15.11s0-5.31,0-5.31h5.59v5.29h10.77v-5.34s5.68-.01,5.68-.01v5.34s15.32-.01,15.32-.01c.78-2.49,1.2-5.12,1.24-7.84h-22.02s-3.73.02-5.6-3.03Z"/>
        <path class="cls-4" d="M24.22,63.03c2.14,1.9,4.56,3.48,7.21,4.63v-9.92c-1.46,1.69-3.78,3.75-7.21,5.29Z"/>
        <path class="cls-4" d="M45.57,29.78l21.29-.02c-.26-.51-.54-1.01-.83-1.51l-20.47.02v1.5Z"/>
        <path class="cls-4" d="M53.42,53.4c.99,1.61,3.82,5.4,9.48,7.56,2.01-2.23,3.67-4.78,4.88-7.57h-14.36s0,.01,0,.01Z"/>
        <path class="cls-4" d="M45.6,36.08l.02.04s.29,3.97,4.03,4.35h20.29c-.12-1.6-.37-3.16-.75-4.67h-23.58v.28Z"/>
        <path class="cls-4" d="M42.34,62.89c2.93-3.59,4.59-7.28,5.4-9.52h-10.72c.69,1.89,2.35,5.8,5.32,9.52Z"/>
        <path class="cls-4" d="M45.58,33.58h22.94c-.19-.53-.39-1.06-.61-1.59l-22.33.03v1.56Z"/>
        <path class="cls-4" d="M53.41,57.5l-.05,10.28c2.87-1.22,5.47-2.92,7.72-4.99-1.83-.76-5.19-2.42-7.67-5.29Z"/>
        <path class="cls-4" d="M47.74,68.01v-8.77c-1.36,2.08-2.69,3.87-3.94,5.35,1.15,1.22,2.45,2.39,3.94,3.42Z"/>
        <path class="cls-4" d="M45.57,26.14h19.03c-.38-.53-.8-1.04-1.25-1.54h-17.8v1.54Z"/>
        <path class="cls-4" d="M42.51,1.91C20.13,1.91,1.91,20.13,1.91,42.52s18.22,40.61,40.61,40.61,40.62-18.22,40.62-40.61S64.9,1.91,42.51,1.91ZM78.31,43.62h-.04s-.08,1.46-.08,1.46v.04s2.65.14,2.65.14l-.06,1.17-6.55-.34.06-1.17,2.92.15h.04s.08-1.46.08-1.46v-.04s-2.95-.15-2.95-.15l.06-1.17,6.55.34-.06,1.17-2.61-.14ZM75.91,55.33l-.57,1.39,2.46,1.01-.45,1.08-6.06-2.48.45-1.08,2.73,1.12.57-1.39-2.74-1.12.45-1.08,6.06,2.48-.45,1.08-2.45-1.01ZM69.18,70.16l-1.8-1.95-1.1,1.02,1.8,1.95-.86.8-4.45-4.8.86-.8,2.01,2.17,1.1-1.02-2.01-2.17.86-.8,4.45,4.8-.86.8ZM65.42,72.92c-.08.44-.37.83-.88,1.19-1.66,1.15-2.6-.19-3.6-1.62-.68-.97-1.32-1.88-1.17-2.74.08-.44.37-.83.88-1.19.44-.31.83-.44,1.18-.44.98,0,1.68,1.01,2.42,2.06h0s.03-.02.03-.02h0s0,0,0,0h0s-.03.02-.03.02c.68.97,1.32,1.89,1.17,2.73ZM57.9,76.75c-.51-.45-.89-1.19-1.29-1.98-.79-1.55-1.53-3.02.27-3.93.37-.19.71-.29,1.02-.29.37,0,.71.14,1.02.41.51.45.89,1.19,1.29,1.98h0s.03-.01.03-.01h0l-.03.02c.79,1.55,1.53,3.02-.27,3.93-.82.42-1.47.38-2.04-.12ZM55.81,78.55l-1.89-5.15v-.04s-1.76.64-1.76.64l-.35-.96,2.85-1.05,2.26,6.14-1.1.4ZM70.09,66.26c.47.38.76.54.99.52.11-.01.21-.07.29-.17.23-.28.22-.56-.02-.92-.24-.34-.69-.75-1.35-1.29-1.29-1.07-1.95-1.51-2.43-.93-.37.44.19.92.59,1.28l.06.05-.74.89c-1.22-1.02-1.4-1.86-.62-2.8.58-.71,1.2-.93,1.92-.7.65.21,1.29.74,1.97,1.3h0s.02-.03.02-.03l-.02.03c1.34,1.11,2.61,2.16,1.32,3.71-.35.42-.71.64-1.12.67-.49.04-1.01-.2-1.6-.72l.73-.89ZM72.47,63.63l.61-.96c.4.25.89.47,1.17.02.23-.36.14-.72-.26-.97-.48-.31-1.01-.04-1.56.23-.72.36-1.54.77-2.51.15-.64-.41-.96-.87-.97-1.41,0-.5.25-.97.48-1.32.32-.5.68-.79,1.09-.87.46-.09.98.08,1.6.52l-.63.99c-.47-.3-.99-.61-1.38,0-.23.36-.11.72.31.98.46.29,1,.04,1.57-.23.74-.34,1.59-.73,2.51-.15.5.32.8.69.9,1.1.1.44-.03.94-.39,1.5-.32.5-.67.79-1.08.86-.43.08-.9-.07-1.45-.46ZM45.17,4.19l.5,4.54v.03s.08,0,.08,0l1.41-4.39,1.86.17-.61,6.52-1.13-.11.47-5.05v-.04s-.08,0-.08,0l-1.62,4.98-1.12-.11-.6-5.15v-.03s-.09,0-.09,0l-.48,5.08-1.13-.11.61-6.52,1.93.18ZM51.52,5.17l-1.44,6.39-1.15-.26,1.44-6.39,1.15.26ZM54.81,6.13c.39.13.67.37.81.71.14.35.13.81-.04,1.32-.28.88-.79,1.27-1.51,1.18h-.03s-.03.07-.03.07l.05.02c.28.13.93.45.59,1.52-.12.38-.46,1.48-.47,1.85l-1.09-.35c-.02-.36.1-.71.21-1.05.02-.06.04-.11.06-.17l.04-.14c.15-.45.28-.84.12-1.15-.09-.19-.29-.33-.59-.42l-.34-.11-.84,2.61-1.12-.36,2.02-6.23,2.16.7ZM58.16,7.44l-2.58,6.02-1.08-.46,2.58-6.02,1.08.46ZM61.1,8.89l-1.47,4.33v.03s.06.04.06.04l3.14-3.38,1.61.95-3.32,5.64-.98-.58,2.57-4.37.02-.03-.08-.04-3.58,3.82-.97-.57,1.64-4.93v-.03s-.06-.04-.06-.04l-2.59,4.4-.98-.58,3.32-5.64,1.67.98ZM68.48,14.22l-2.44,3.86-.02.03.06.05,3.84-2.55,1.35,1.3-4.55,4.71-.82-.79,3.55-3.67-.06-.06-4.38,2.88-.81-.79,2.75-4.41.02-.03-.06-.06-3.55,3.68-.82-.79,4.55-4.71,1.39,1.35ZM74.6,21.43l.63.99-5.52,3.51-.63-.99,5.51-3.51ZM73.35,21.18l-1.22-1.6-1.33,1.01-.03.02,1.12,1.47-.75.57-1.12-1.47-1.57,1.2-.03.02,1.26,1.65-.75.57-1.97-2.58,5.21-3.97,1.93,2.53-.75.57ZM79.18,39.83c-.92.11-1.49-.18-1.71-.87v-.03s-.09.01-.09.01v.06c0,.28,0,1.04-1.13,1.17-.42.05-1.54.21-1.88.36l-.14-1.14c.31-.17.68-.21,1.03-.25.06,0,.13-.01.19-.02l.14-.02c.47-.06.88-.1,1.1-.38.13-.16.17-.4.13-.71l-.05-.36-2.72.34-.14-1.16,6.5-.81.28,2.25c.11.86-.45,1.42-1.52,1.56ZM79.29,35.13l-.47-1.91v-.04s-1.63.4-1.63.4h-.04s.44,1.81.44,1.81l-.91.23-.44-1.76v-.04s-1.92.48-1.92.48h-.04s.5,2.02.5,2.02l-.92.23-.78-3.15,6.35-1.58.77,3.09-.91.23ZM78.26,31.36l-.48-1.3-5.18,1.93-.41-1.1,5.18-1.93-.48-1.3.96-.36,1.37,3.7-.96.36ZM77.04,26.41c-.15.41-.51.75-1.13,1.02l-.52-1.02c.42-.22.85-.53.61-1-.09-.18-.22-.3-.38-.35-.17-.06-.37-.03-.59.09-.51.26-.55.85-.59,1.47-.05.8-.11,1.71-1.14,2.24-.56.29-1.05.36-1.46.23-.57-.18-.91-.73-1.15-1.19-.27-.52-.34-.99-.2-1.38.15-.44.57-.8,1.26-1.12l.54,1.04c-.49.25-1.03.55-.69,1.2.09.17.21.28.36.33.18.06.41.03.64-.1.48-.25.54-.84.6-1.48.08-.82.17-1.74,1.13-2.24.54-.28.99-.35,1.4-.21.43.14.8.5,1.1,1.09.27.53.34.98.2,1.37ZM77.39,53.33l.29-1.13c.35.09.73.15,1,0,.15-.09.26-.25.32-.47.2-.79-.97-1.08-2.21-1.4-1.98-.5-2.44-.45-2.63.29-.05.18-.06.41-.03.64v.03s1.45.37,1.45.37h.04s.17-.65.17-.65l.91.23-.46,1.79-3.19-.81c.02-.36.08-1.18.2-1.65.52-2.02,1.53-1.98,3.9-1.38,1.77.45,3.19.97,2.72,2.83-.14.57-.44.99-.85,1.22-.43.24-.99.27-1.62.08ZM73.94,47.84l.17-1.16,6.48.97-.17,1.16-6.48-.97ZM42.52,12.61c16.49,0,29.9,13.43,29.9,29.91s-13.41,29.89-29.9,29.89-29.9-13.42-29.9-29.89,13.41-29.91,29.9-29.91ZM47.28,80.42c-.27-.2-.44-.56-.52-1.08l1.07-.17c.03.18.08.32.15.41.1.13.25.18.41.16.16-.03.27-.08.33-.18.17-.23.09-.67-.05-1.55-.02-.13-.04-.27-.07-.42l-.02-.1-.05.08c-.2.31-.48.49-.85.55-.29.05-.55-.01-.77-.17-.33-.24-.58-.72-.67-1.31-.24-1.51.15-2.29,1.24-2.47.49-.08.87-.01,1.16.2.63.46.8,1.52,1,2.75v.02c.24,1.49.51,3.18-1.14,3.45-.55.09-.94.03-1.22-.17ZM43.02,80.93l1.39-5.42v-.05s-1.98.06-1.98.06l-.03-.91,3.02-.1.04,1.18-1.23,5.2-1.22.04ZM41.74,77.78v.02c-.11,1.51-.23,3.21-1.9,3.1-.56-.04-.92-.18-1.14-.44-.22-.26-.31-.64-.26-1.17l1.08.07c-.01.19,0,.33.06.44.07.15.2.24.36.25.56.04.59-.41.67-1.62,0-.13.02-.28.03-.43v-.1s-.06.07-.06.07c-.27.26-.58.37-.96.35-.29-.02-.53-.13-.71-.34-.27-.31-.4-.83-.36-1.44.1-1.5.68-2.2,1.76-2.13.49.03.85.18,1.09.46.51.59.43,1.66.35,2.9ZM35.77,80.32l.82-4.91-.07.05c-.29.19-.63.36-1.01.52l.18-1.1c.4-.17.86-.39,1.24-.78l1.04.18-1.05,6.24-1.16-.2ZM28.52,78.3l.89-4.48v-.03s-.06-.03-.06-.03l-2.67,3.77-1.73-.73,2.55-6.03,1.05.44-1.99,4.71.08.03,3.05-4.26,1.04.44-.98,5.1v.03s.07.03.07.03l1.99-4.71,1.05.44-2.55,6.03-1.79-.75ZM22.8,75.47l3.29-5.66,1.01.59-3.29,5.66-1.01-.59ZM17.49,65.37l-.05-.05-3.99,2.31-1.26-1.38,4.84-4.42.77.84-3.75,3.42-.03.03.06.06,4.55-2.6.76.83-3.02,4.23-.02.02.05.06,3.78-3.45.77.84-4.84,4.42-1.3-1.43,2.7-3.73ZM9.24,61.89c-.3-.51-.39-1.01-.26-1.47.14-.47.51-.89,1.09-1.19l.59,1c-.31.18-.63.4-.71.7-.05.17-.01.36.11.56.41.7,1.45.09,2.56-.55,1.25-.73,1.7-1.1,1.8-1.46.05-.18,0-.35-.13-.59-.1-.16-.25-.33-.43-.48l-.02-.02-1.29.75-.03.02.34.58-.81.48-.94-1.59,2.84-1.66c.23.25.77.89,1.02,1.31.42.72.56,1.25.44,1.72-.18.68-.92,1.23-2.24,2-1.57.92-2.95,1.55-3.92-.11ZM4.53,45.47c.28-.33.74-.51,1.42-.56l.13,1.13c-.3.04-.5.09-.65.18-.21.12-.3.31-.28.55.05.43.35.65.82.59.57-.07.81-.6,1.07-1.17.33-.73.71-1.56,1.85-1.69,1.65-.19,1.99.87,2.1,1.82.07.59-.03,1.04-.3,1.36-.3.35-.81.55-1.57.6l-.13-1.17c.43-.05.77-.11.95-.34.1-.13.14-.31.12-.54-.05-.42-.36-.63-.86-.57-.54.06-.8.6-1.08,1.17-.36.74-.77,1.57-1.85,1.69-1.22.14-1.88-.42-2.03-1.71-.07-.59.03-1.04.29-1.35ZM6.89,39.35l.16-1.49-2.64-.29.13-1.16,6.51.71-.13,1.16-2.94-.32-.16,1.49,2.94.32-.13,1.16-6.51-.71.13-1.16,2.64.29ZM9.91,27.74l.03.02.64-1.32.02-.03-2.39-1.15.51-1.05,5.9,2.84-.51,1.05-2.63-1.26-.03-.02-.65,1.35,2.66,1.28-.51,1.05-5.9-2.84.51-1.05,2.35,1.13ZM15.66,15.52c.48,0,.98.27,1.53.81l-.78.84c-.44-.41-.73-.58-.96-.57-.11,0-.21.05-.3.15-.51.55.01,1.15,1.24,2.29.92.86,1.47,1.3,1.9,1.3,0,0,.01,0,.02,0,.17,0,.31-.08.45-.23.39-.42-.13-.93-.52-1.31l-.06-.06.79-.85c1.17,1.1,1.3,1.93.46,2.84-.43.46-.85.69-1.3.71-.87.03-1.68-.73-2.55-1.53h0c-1.27-1.19-2.48-2.31-1.1-3.79.37-.4.75-.6,1.16-.61,0,0,.02,0,.02,0ZM17.51,13.37l1.67,2.01.02.03,1.13-.93.03-.02-1.69-2.04.91-.75,4.18,5.05-.91.75-1.86-2.25-.02-.03-1.16.96,1.88,2.28-.9.75-4.18-5.05.9-.75ZM21.44,10.82c.1-.44.41-.81.95-1.14.42-.26.79-.37,1.12-.37,1.02,0,1.69,1.07,2.38,2.2.62,1.01,1.2,1.96,1,2.8-.1.44-.41.81-.95,1.14-1.72,1.05-2.58-.35-3.49-1.83h0c-.62-1.01-1.21-1.96-1.01-2.8ZM30.35,9.5c.45,1.03.92,2.1.61,2.91-.16.42-.52.75-1.1,1-1.85.81-2.51-.7-3.21-2.29-.48-1.08-.92-2.1-.61-2.91.16-.42.52-.75,1.1-1,.36-.16.67-.22.94-.22,1.16,0,1.7,1.23,2.26,2.52ZM31.4,5.75l1.59,5.29,1.79-.54.3.98-2.91.87-1.89-6.27,1.12-.34ZM13.87,19.69l-.67.93c-.39-.27-.86-.52-1.17-.08-.25.35-.18.71.21.99.46.33,1.01.1,1.58-.15.74-.32,1.58-.68,2.52,0,.62.44.91.92.89,1.46-.02.5-.31.96-.55,1.3-.35.48-.73.75-1.14.8-.46.06-.97-.14-1.56-.61l.69-.95c.45.32.96.67,1.38.07.11-.15.15-.31.13-.47-.03-.19-.16-.37-.38-.53-.44-.32-1-.1-1.59.14-.76.3-1.63.65-2.51.01-.48-.35-.76-.73-.83-1.15-.07-.44.09-.94.48-1.48.35-.49.72-.75,1.13-.8.43-.06.9.12,1.42.54ZM6.44,43.97l-2.3.06-.03-.91,2.33.19v.67ZM7.47,29.48c.28,0,.58.06.89.17l-.35,1.11c-.34-.11-.72-.2-.99-.06-.16.08-.27.23-.34.45-.05.17-.04.33.03.47.24.47,1.14.76,2.09,1.06,1.94.62,2.41.59,2.64-.13.07-.23.08-.48.07-.64v-.03s-1.46-.46-1.46-.46l-.21.64-.9-.29.56-1.76,3.13,1c-.04.36-.15,1.17-.3,1.63-.64,1.99-1.65,1.89-3.98,1.15-1.14-.36-2.12-.73-2.51-1.48-.21-.41-.22-.91-.03-1.51.18-.56.5-.96.92-1.17.22-.11.46-.16.73-.16ZM11.47,35.35l-.24,1.15-6.4-1.36.24-1.15,6.4,1.36ZM10.46,50.04h.04s-.42-1.83-.42-1.83l1-.23.68,2.96-6.39,1.48-.26-1.14,5.35-1.24ZM7.28,53.02c.29-.1.55-.15.78-.15.47,0,.84.21,1.08.63l.02.03.08-.03v-.06c-.07-.28-.23-1.01.84-1.39.4-.14,1.46-.54,1.76-.76l.38,1.08c-.27.23-.62.35-.96.47-.06.02-.12.04-.18.06l-.14.05c-.45.16-.84.29-.99.61-.09.19-.08.43.02.72l.12.34,2.59-.92.39,1.1-6.18,2.19-.76-2.13c-.29-.81.13-1.49,1.15-1.85ZM13.31,55.27l.49,1.06-5.95,2.74-.49-1.06,5.95-2.74ZM17.16,71.36l4.26-4.98.89.76-4.26,4.98-.89-.76ZM19.85,71.44c.38-.54.79-.81,1.24-.81.18,0,.36.04.55.13h.03s.05-.06.05-.06l-.04-.04c-.21-.19-.76-.7-.11-1.62,0-.01.85-1.21,1-1.63l.93.66c-.09.35-.3.65-.51.94-.04.05-.07.1-.11.15l-.08.12c-.28.39-.51.72-.46,1.06.03.21.18.4.44.58l.29.21,1.58-2.24.96.68-3.77,5.35-1.85-1.31c-.7-.5-.75-1.29-.13-2.17ZM37.7,4.31c.32,0,.69.08.97.3.24.19.38.45.42.78.09.76-.3,1.25-.67,1.72-.04.05-.08.1-.11.14l-.02.02,1.17,1.32v-.08c.06-.43.06-.68-.01-1.3l.93-.11c.08.67.18,1.5-.13,2.24v.02s1.02,1.2,1.02,1.2l-1.12.14-.44-.49-.03.04c-.43.6-1.02.75-1.55.82-.69.08-1.24-.03-1.64-.34-.37-.29-.6-.75-.68-1.36-.11-.89.41-1.51.92-1.99l.03-.03-.02-.03c-.32-.36-.76-.85-.85-1.55-.09-.71.6-1.33,1.6-1.45.07,0,.15-.01.23-.01Z"/>
        <polygon class="cls-1" points="31.8 72.58 29.81 77.29 29.74 77.25 29.74 77.22 30.72 72.12 29.68 71.68 26.63 75.94 26.56 75.91 28.54 71.2 27.49 70.76 24.95 76.79 26.67 77.52 29.34 73.76 29.41 73.79 29.4 73.82 28.52 78.3 30.31 79.05 32.85 73.02 31.8 72.58"/>
        <polygon class="cls-1" points="26.09 69.81 22.8 75.47 23.81 76.06 27.1 70.4 26.09 69.81"/>
        <path class="cls-1" d="M19.98,73.61l1.85,1.31,3.77-5.35-.96-.68-1.58,2.24-.29-.21c-.26-.18-.4-.37-.44-.58-.06-.34.18-.68.46-1.06l.08-.12c.04-.05.07-.1.11-.15.21-.29.43-.59.51-.94l-.93-.66c-.14.42-.99,1.62-1,1.63-.65.92-.1,1.43.11,1.62l.04.04-.05.07h-.03c-.19-.1-.37-.15-.55-.15-.44,0-.86.27-1.24.81-.62.88-.57,1.67.13,2.17ZM20.91,72c.28-.4.73-.72,1.13-.44l.48.34-1.1,1.57-.48-.34c-.37-.26-.38-.63-.03-1.13Z"/>
        <path class="cls-4" d="M20.94,73.13l.48.34,1.1-1.57-.48-.34c-.4-.29-.85.04-1.13.44-.35.5-.34.87.03,1.13Z"/>
        <rect class="cls-1" x="16.46" y="68.67" width="6.55" height="1.17" transform="translate(-45.73 39.27) rotate(-49.48)"/>
        <polygon class="cls-1" points="20.94 66.11 20.17 65.27 16.39 68.72 16.34 68.66 16.36 68.63 19.38 64.4 18.62 63.57 14.07 66.17 14.01 66.11 14.04 66.08 17.79 62.66 17.02 61.82 12.19 66.24 13.45 67.62 17.44 65.31 17.49 65.37 14.79 69.1 16.1 70.53 20.94 66.11"/>
        <path class="cls-1" d="M15.4,60c.12-.46-.01-.99-.44-1.72-.25-.42-.79-1.06-1.02-1.31l-2.84,1.66.94,1.59.81-.48-.34-.58.03-.02,1.29-.75.02.02c.18.15.34.32.43.48.14.24.18.41.13.59-.09.36-.55.73-1.8,1.46-1.1.65-2.14,1.26-2.56.55-.12-.2-.15-.38-.11-.56.08-.3.4-.52.71-.7l-.59-1c-.58.31-.96.72-1.09,1.19-.13.45-.04.96.26,1.47.97,1.66,2.35,1.03,3.92.11,1.32-.77,2.06-1.32,2.24-2Z"/>
        <rect class="cls-1" x="7.31" y="56.58" width="6.55" height="1.17" transform="translate(-22.96 9.68) rotate(-24.74)"/>
        <path class="cls-1" d="M6.89,57l6.18-2.19-.39-1.1-2.59.92-.12-.34c-.11-.3-.11-.53-.02-.72.15-.31.54-.45.99-.61l.14-.05c.06-.02.12-.04.18-.06.34-.12.69-.24.96-.47l-.38-1.08c-.3.21-1.35.61-1.76.76-1.06.38-.91,1.11-.85,1.39v.06s-.07.03-.07.03l-.02-.03c-.24-.42-.6-.63-1.08-.63-.23,0-.49.05-.78.15-1.02.36-1.43,1.03-1.15,1.85l.76,2.13ZM7.23,54.48c.1-.16.3-.29.6-.4.46-.16,1.01-.17,1.18.3l.2.56-1.81.64-.2-.56c-.07-.2-.06-.39.03-.54Z"/>
        <path class="cls-4" d="M7.39,55.58l1.81-.64-.2-.56c-.16-.47-.72-.46-1.18-.3-.3.11-.49.24-.6.4-.1.15-.11.33-.03.54l.2.56Z"/>
        <polygon class="cls-1" points="11.76 50.94 11.08 47.98 10.08 48.22 10.5 50.04 10.46 50.04 5.11 51.29 5.38 52.43 11.76 50.94"/>
        <path class="cls-1" d="M6.28,48.53c1.08-.12,1.49-.96,1.85-1.69.28-.57.54-1.11,1.08-1.17.5-.06.81.15.86.57.03.23-.01.4-.12.54-.18.23-.52.29-.95.34l.13,1.17c.76-.05,1.27-.24,1.57-.6.27-.32.37-.77.3-1.36-.11-.94-.45-2-2.1-1.82-1.14.13-1.52.96-1.85,1.69-.26.57-.5,1.1-1.07,1.17-.47.05-.77-.16-.82-.59-.03-.24.07-.43.28-.55.15-.09.35-.14.65-.18l-.13-1.13c-.67.04-1.14.22-1.42.56-.26.31-.36.75-.29,1.35.15,1.29.81,1.85,2.03,1.71Z"/>
        <polygon class="cls-1" points="4.14 44.03 6.44 43.97 6.44 43.31 4.11 43.12 4.14 44.03"/>
        <polygon class="cls-1" points="10.64 40.94 10.77 39.77 7.83 39.45 7.99 37.96 10.93 38.28 11.06 37.12 4.55 36.41 4.42 37.57 7.06 37.86 6.89 39.35 4.25 39.06 4.13 40.23 10.64 40.94"/>
        <rect class="cls-1" x="7.56" y="31.97" width="1.17" height="6.54" transform="translate(-28.02 35.91) rotate(-78.03)"/>
        <path class="cls-1" d="M5.82,30.81c-.19.6-.18,1.09.03,1.51.39.75,1.37,1.11,2.51,1.48,2.33.74,3.34.84,3.98-1.15.15-.46.26-1.28.3-1.63l-3.13-1-.56,1.76.9.29.21-.64,1.46.46v.03c.01.17,0,.41-.07.64-.23.73-.7.75-2.64.13-.95-.3-1.85-.59-2.09-1.06-.07-.14-.09-.3-.03-.47.07-.22.19-.37.34-.45.28-.14.66-.05.99.06l.35-1.11c-.31-.12-.62-.17-.89-.17s-.51.05-.73.16c-.42.21-.74.61-.92,1.17Z"/>
        <polygon class="cls-1" points="12.95 30.5 13.46 29.45 10.79 28.17 11.44 26.81 11.48 26.83 14.11 28.09 14.61 27.04 8.71 24.2 8.2 25.26 10.59 26.4 10.58 26.44 9.94 27.76 9.91 27.74 7.55 26.61 7.05 27.66 12.95 30.5"/>
        <path class="cls-1" d="M11.32,19.95c-.39.54-.55,1.04-.48,1.48.07.42.35.81.83,1.15.88.64,1.75.29,2.51-.01.59-.23,1.15-.46,1.59-.14.22.16.35.34.38.53.03.16-.02.32-.13.47-.43.59-.93.25-1.38-.07l-.69.95c.59.47,1.1.67,1.56.61.41-.05.79-.33,1.14-.8.25-.34.53-.8.55-1.3.02-.54-.27-1.02-.89-1.46-.94-.67-1.77-.31-2.52,0-.57.25-1.11.48-1.58.15-.38-.28-.46-.64-.21-.99.31-.43.79-.19,1.17.08l.67-.93c-.53-.42-.99-.6-1.42-.54-.41.05-.78.32-1.13.8Z"/>
        <path class="cls-1" d="M15.59,19.91h0c.86.81,1.68,1.56,2.55,1.53.45-.02.88-.25,1.3-.71.85-.91.72-1.73-.46-2.84l-.79.85.06.06c.38.37.91.89.52,1.31-.14.15-.28.22-.45.23,0,0-.01,0-.02,0-.43,0-.98-.44-1.9-1.3-1.23-1.14-1.75-1.74-1.24-2.29.09-.1.19-.14.3-.15.23,0,.52.16.96.57l.78-.84c-.55-.55-1.06-.81-1.53-.81,0,0-.02,0-.02,0-.41,0-.78.21-1.16.61-1.37,1.48-.17,2.6,1.1,3.79Z"/>
        <polygon class="cls-1" points="21.69 18.42 19.8 16.14 20.96 15.19 20.99 15.21 22.85 17.46 23.75 16.72 19.57 11.67 18.67 12.42 20.36 14.46 20.33 14.48 19.2 15.42 19.18 15.39 17.51 13.37 16.61 14.12 20.78 19.17 21.69 18.42"/>
        <path class="cls-1" d="M22.45,13.62c.91,1.48,1.77,2.88,3.49,1.83.53-.33.84-.7.95-1.14.2-.85-.38-1.8-1-2.8-.69-1.12-1.35-2.2-2.38-2.2-.33,0-.7.11-1.12.37-.53.33-.84.7-.95,1.14-.2.84.39,1.79,1.01,2.8h0ZM22.87,10.46c.64-.39,1.12.24,2,1.67.45.73.75,1.26.86,1.66.12.42.04.69-.27.88-.12.08-.24.11-.36.11-.48,0-.93-.63-1.64-1.78-.45-.73-.75-1.26-.86-1.66-.12-.42-.04-.69.27-.88Z"/>
        <path class="cls-4" d="M23.46,13c.71,1.15,1.16,1.78,1.64,1.78.12,0,.24-.04.36-.11.31-.19.39-.46.27-.88-.12-.4-.42-.93-.86-1.66-.88-1.43-1.36-2.06-2-1.67-.31.19-.39.46-.27.88.11.4.42.93.86,1.66Z"/>
        <path class="cls-1" d="M26.04,8.2c-.31.8.13,1.83.61,2.91.7,1.59,1.36,3.1,3.21,2.29.57-.25.93-.58,1.1-1,.32-.81-.15-1.88-.61-2.91-.56-1.29-1.1-2.52-2.26-2.52-.28,0-.59.07-.94.22-.58.25-.94.58-1.1,1ZM27.51,8.04c.68-.3,1.08.39,1.75,1.93.51,1.17.75,1.84.59,2.24-.06.15-.18.27-.36.35-.1.05-.2.07-.3.07-.52,0-.89-.7-1.46-2-.52-1.17-.75-1.84-.59-2.25.06-.15.18-.27.36-.35Z"/>
        <path class="cls-4" d="M27.74,10.63c.57,1.3.94,2,1.46,2,.09,0,.19-.02.3-.07.18-.08.3-.19.36-.35.16-.4-.08-1.07-.59-2.24-.68-1.54-1.07-2.23-1.75-1.93-.18.08-.3.19-.36.35-.16.4.08,1.07.59,2.25Z"/>
        <polygon class="cls-1" points="35.08 11.48 34.78 10.5 32.99 11.04 31.4 5.75 30.28 6.08 32.17 12.36 35.08 11.48"/>
        <path class="cls-1" d="M35.88,5.78c.08.7.52,1.19.85,1.55l.02.03-.03.03c-.52.48-1.03,1.1-.92,1.99.07.61.3,1.06.68,1.36.4.31.95.43,1.64.34.52-.06,1.11-.21,1.55-.82l.03-.04.44.49,1.12-.14-1.03-1.2v-.02c.31-.74.22-1.57.14-2.24l-.93.11c.07.62.08.86.02,1.3v.08s-1.18-1.32-1.18-1.32l.02-.02s.08-.1.11-.14c.38-.47.77-.96.67-1.72-.04-.33-.18-.6-.42-.78-.28-.22-.65-.3-.97-.3-.08,0-.16,0-.23.01-1,.12-1.69.75-1.6,1.45ZM38.92,9.56v.02c-.18.32-.49.52-.89.57-.05,0-.1,0-.14,0-.23,0-.43-.07-.58-.21-.18-.16-.3-.42-.34-.73-.06-.47.23-.89.48-1.17l.03-.03,1.45,1.54ZM37.43,5.09c.17-.02.31.02.42.12.11.09.18.24.2.42h0c.04.34-.12.67-.49,1.01l-.03.02-.03-.03c-.22-.22-.51-.51-.56-.91-.04-.34.22-.59.49-.63Z"/>
        <path class="cls-4" d="M37.44,8.05c-.25.28-.54.7-.48,1.17.04.32.16.57.34.73.15.14.35.21.58.21.05,0,.1,0,.14,0,.4-.05.71-.25.88-.57v-.02s-1.44-1.54-1.44-1.54l-.03.03Z"/>
        <polygon class="cls-1" points="43.76 10.63 44.24 5.54 44.33 5.55 44.33 5.58 44.93 10.74 46.06 10.84 47.68 5.86 47.76 5.87 47.76 5.91 47.28 10.96 48.42 11.06 49.03 4.55 47.17 4.37 45.76 8.76 45.68 8.76 45.68 8.73 45.17 4.19 43.24 4.01 42.63 10.52 43.76 10.63"/>
        <rect class="cls-1" x="46.96" y="7.65" width="6.55" height="1.17" transform="translate(31.18 55.44) rotate(-77.33)"/>
        <path class="cls-1" d="M51.75,12.02l.84-2.61.34.11c.3.1.49.24.59.42.16.31.03.7-.12,1.15l-.04.14c-.02.06-.04.11-.06.17-.11.34-.23.69-.21,1.05l1.09.35c.01-.37.35-1.48.47-1.85.35-1.07-.31-1.38-.59-1.52l-.05-.02.03-.08h.03c.72.1,1.23-.29,1.51-1.17.17-.51.18-.97.04-1.32-.14-.34-.42-.59-.81-.71l-2.16-.7-2.02,6.23,1.12.36ZM52.9,8.48l.58-1.79.56.18c.43.14.55.49.36,1.07-.13.4-.39.78-.76.78-.06,0-.12,0-.19-.03l-.56-.18v-.04Z"/>
        <path class="cls-4" d="M53.63,8.72c.37,0,.64-.38.76-.78.19-.58.07-.93-.36-1.07l-.56-.18-.58,1.79v.04s.55.18.55.18c.07.02.13.03.19.03Z"/>
        <rect class="cls-1" x="53.06" y="9.63" width="6.55" height="1.17" transform="translate(24.73 57.95) rotate(-66.77)"/>
        <polygon class="cls-1" points="57.09 14.13 59.69 9.73 59.76 9.77 59.75 9.8 58.1 14.73 59.08 15.3 62.66 11.48 62.73 11.51 62.71 11.55 60.14 15.92 61.12 16.5 64.44 10.85 62.83 9.91 59.69 13.29 59.62 13.25 59.63 13.22 61.1 8.89 59.43 7.91 56.11 13.56 57.09 14.13"/>
        <polygon class="cls-1" points="63.36 18.38 66.91 14.7 66.97 14.76 66.95 14.78 64.2 19.19 65.02 19.98 69.39 17.1 69.45 17.16 65.9 20.83 66.72 21.62 71.27 16.91 69.92 15.61 66.08 18.16 66.02 18.11 66.04 18.08 68.48 14.22 67.09 12.87 62.54 17.58 63.36 18.38"/>
        <polygon class="cls-1" points="66.96 22.05 68.93 24.63 69.68 24.06 68.42 22.41 68.45 22.38 70.02 21.19 71.14 22.66 71.89 22.09 70.77 20.62 70.8 20.6 72.13 19.58 73.35 21.18 74.1 20.61 72.17 18.08 66.96 22.05"/>
        <rect class="cls-1" x="68.89" y="23.1" width="6.54" height="1.17" transform="translate(-1.43 42.48) rotate(-32.5)"/>
        <path class="cls-1" d="M75.74,23.95c-.41-.13-.87-.06-1.4.21-.97.5-1.06,1.42-1.13,2.24-.06.63-.12,1.23-.6,1.48-.24.12-.46.16-.64.1-.15-.05-.28-.16-.36-.33-.33-.65.2-.94.69-1.2l-.54-1.04c-.69.31-1.1.68-1.26,1.12-.14.39-.07.85.2,1.38.24.46.58,1.01,1.15,1.19.41.13.9.05,1.46-.23,1.02-.53,1.08-1.44,1.14-2.24.04-.62.08-1.21.59-1.47.22-.11.42-.14.59-.09.16.05.29.17.38.35.24.47-.19.78-.61,1l.52,1.02c.62-.28.99-.61,1.13-1.02.14-.39.07-.83-.2-1.37-.3-.59-.67-.96-1.1-1.09Z"/>
        <polygon class="cls-1" points="76.89 27.66 77.37 28.96 72.19 30.9 72.59 31.99 77.77 30.06 78.26 31.36 79.22 31.01 77.85 27.3 76.89 27.66"/>
        <polygon class="cls-1" points="73.09 33.4 73.87 36.55 74.78 36.32 74.28 34.31 74.32 34.3 76.23 33.82 76.24 33.86 76.68 35.62 77.59 35.39 77.15 33.6 77.19 33.59 78.81 33.18 78.82 33.22 79.29 35.13 80.2 34.9 79.44 31.82 73.09 33.4"/>
        <path class="cls-1" d="M73.92,36.83l.14,1.16,2.72-.34.05.36c.04.32,0,.55-.13.71-.21.27-.62.32-1.1.38l-.14.02c-.06,0-.13.02-.19.02-.35.04-.72.08-1.03.25l.14,1.14c.34-.15,1.45-.31,1.88-.36,1.12-.14,1.12-.89,1.13-1.17v-.06s.08-.01.08-.01v.03c.22.69.8.99,1.72.87,1.07-.13,1.62-.7,1.52-1.56l-.28-2.25-6.5.81ZM78.88,38.67c-.06,0-.14.01-.23.01-.2,0-.46-.03-.64-.18-.12-.09-.19-.22-.21-.38l-.07-.59,1.9-.24.07.59c.06.45-.21.71-.82.78Z"/>
        <path class="cls-4" d="M79.63,37.3l-1.9.24.07.59c.02.16.09.29.21.38.18.14.44.18.64.18.1,0,.18,0,.23-.01.61-.08.87-.33.82-.78l-.07-.59Z"/>
        <polygon class="cls-1" points="74.44 42.24 74.38 43.41 77.33 43.57 77.33 43.6 77.25 45.07 77.21 45.06 74.3 44.91 74.24 46.08 80.78 46.42 80.84 45.25 78.19 45.12 78.2 45.08 78.27 43.61 78.31 43.62 80.92 43.75 80.98 42.58 74.44 42.24"/>
        <rect class="cls-1" x="76.69" y="44.47" width="1.17" height="6.56" transform="translate(18.57 117.07) rotate(-81.46)"/>
        <path class="cls-1" d="M79.86,52.02c.47-1.86-.95-2.38-2.72-2.83-2.37-.6-3.39-.65-3.9,1.38-.12.47-.18,1.29-.2,1.65l3.19.81.46-1.79-.91-.23-.17.65h-.04s-1.45-.38-1.45-.38v-.03c-.03-.23-.02-.46.03-.64.19-.74.66-.79,2.63-.29,1.24.32,2.41.61,2.21,1.4-.06.22-.16.38-.32.47-.27.16-.65.09-1,0l-.29,1.13c.63.19,1.19.16,1.62-.08.41-.23.71-.65.85-1.22Z"/>
        <polygon class="cls-1" points="72.75 52.77 72.31 53.86 75.04 54.97 74.47 56.37 71.74 55.24 71.29 56.33 77.35 58.81 77.8 57.73 75.34 56.72 75.91 55.33 78.37 56.34 78.82 55.25 72.75 52.77"/>
        <path class="cls-1" d="M75,63.23c.35-.56.48-1.06.39-1.5-.09-.41-.39-.79-.9-1.1-.92-.59-1.76-.19-2.51.15-.57.27-1.12.52-1.57.23-.42-.27-.54-.63-.31-.98.39-.62.92-.3,1.38,0l.63-.99c-.62-.44-1.14-.61-1.6-.52-.41.08-.77.37-1.09.87-.23.36-.48.83-.48,1.32,0,.54.33,1,.97,1.41.97.62,1.79.21,2.51-.15.56-.28,1.08-.54,1.56-.23.4.25.49.61.26.97-.29.45-.77.23-1.17-.02l-.61.96c.55.39,1.03.54,1.45.46.4-.08.75-.36,1.08-.86Z"/>
        <path class="cls-1" d="M72.08,67.19c1.29-1.56.02-2.61-1.32-3.71l.02-.03-.02.03h0c-.68-.56-1.32-1.09-1.97-1.3-.73-.23-1.34,0-1.92.7-.78.95-.6,1.79.62,2.8l.74-.89-.06-.05c-.41-.35-.96-.83-.59-1.28.48-.58,1.14-.14,2.43.93.66.54,1.11.95,1.35,1.29.25.36.26.64.02.92-.08.1-.18.16-.29.17-.23.02-.52-.13-.99-.52l-.73.89c.6.52,1.12.76,1.6.72.4-.03.77-.25,1.12-.67Z"/>
        <polygon class="cls-1" points="64.73 65.36 66.74 67.52 65.63 68.55 63.63 66.38 62.77 67.18 67.22 71.98 68.08 71.19 66.28 69.24 67.38 68.22 69.18 70.16 70.04 69.36 65.59 64.56 64.73 65.36"/>
        <polygon class="cls-1" points="64.28 70.16 64.28 70.16 64.28 70.16 64.28 70.16"/>
        <path class="cls-1" d="M64.28,70.16l-.03.02h0c-.73-1.05-1.44-2.06-2.42-2.06-.35,0-.74.13-1.18.44-.51.36-.8.75-.88,1.19-.15.85.49,1.77,1.17,2.74,1,1.43,1.94,2.77,3.6,1.62.52-.36.8-.75.88-1.19.15-.85-.49-1.77-1.17-2.73l.03-.02ZM64.3,72.95c-.03.16-.12.3-.29.41-.13.09-.26.14-.39.14-.47,0-.95-.6-1.71-1.69-.74-1.05-1.1-1.66-1.02-2.09.03-.16.12-.3.29-.41.61-.43,1.13.17,2.1,1.55.74,1.05,1.1,1.66,1.02,2.09Z"/>
        <path class="cls-4" d="M61.18,69.32c-.16.11-.26.25-.29.41-.08.42.28,1.03,1.02,2.09.76,1.08,1.24,1.69,1.71,1.69.13,0,.25-.04.39-.14.16-.11.26-.25.29-.41.08-.42-.28-1.04-1.02-2.09-.96-1.38-1.48-1.98-2.1-1.55Z"/>
        <path class="cls-1" d="M60.21,72.94l.03-.02h0l-.03.02h0c-.4-.79-.78-1.53-1.29-1.98-.31-.27-.65-.41-1.02-.41-.31,0-.65.1-1.02.29-1.8.92-1.06,2.38-.27,3.93.4.79.78,1.54,1.29,1.98.57.5,1.22.53,2.04.12,1.8-.92,1.06-2.38.27-3.93ZM59.53,76.05c-.11.06-.22.09-.32.09-.5,0-.9-.67-1.53-1.91-.76-1.5-1.05-2.24-.38-2.58.67-.34,1.1.33,1.86,1.82.76,1.5,1.05,2.24.38,2.58Z"/>
        <path class="cls-4" d="M57.29,71.65c-.67.34-.38,1.08.38,2.58.63,1.24,1.03,1.91,1.53,1.91.1,0,.21-.03.32-.09.67-.34.38-1.08-.38-2.58-.76-1.5-1.19-2.16-1.86-1.82Z"/>
        <polygon class="cls-1" points="51.8 73.05 52.16 74.02 53.91 73.37 53.92 73.41 55.81 78.55 56.91 78.15 54.65 72.01 51.8 73.05"/>
        <path class="cls-1" d="M36.94,74.1c-.38.39-.84.61-1.24.78l-.18,1.1c.38-.15.72-.33,1.01-.52l.07-.05-.82,4.91,1.16.2,1.05-6.24-1.04-.18Z"/>
        <path class="cls-1" d="M40.31,74.42c-1.08-.07-1.66.62-1.76,2.13-.04.6.09,1.12.36,1.44.18.21.42.32.71.34.38.02.69-.09.96-.35l.07-.07v.1c-.02.15-.03.3-.04.43-.08,1.2-.11,1.65-.67,1.62-.17-.01-.29-.09-.36-.25-.05-.11-.07-.25-.06-.44l-1.08-.07c-.04.53.04.91.26,1.17.23.26.59.41,1.14.44,1.67.11,1.79-1.59,1.9-3.1v-.02c.09-1.24.17-2.32-.35-2.9-.24-.28-.59-.43-1.09-.46ZM40.75,76.41c-.02.31-.08,1.13-.6,1.13-.01,0-.02,0-.04,0-.12,0-.22-.06-.3-.14-.21-.24-.18-.74-.16-1.04.02-.31.06-.82.31-1.04.09-.08.19-.11.32-.1.12,0,.23.06.3.14.22.25.18.76.17,1.04Z"/>
        <path class="cls-4" d="M40.28,75.23c-.12-.01-.23.02-.32.1-.25.22-.29.73-.31,1.04-.02.3-.06.8.16,1.04.07.09.17.13.3.14.01,0,.02,0,.04,0,.52,0,.58-.82.6-1.13.02-.28.05-.79-.17-1.04-.08-.09-.18-.14-.3-.14Z"/>
        <polygon class="cls-1" points="45.42 74.51 42.4 74.61 42.43 75.52 44.42 75.46 44.41 75.51 43.02 80.93 44.24 80.88 45.46 75.69 45.42 74.51"/>
        <path class="cls-1" d="M49.64,77.14v-.02c-.2-1.23-.37-2.29-1-2.75-.3-.21-.68-.28-1.16-.2-1.08.17-1.48.96-1.24,2.47.09.59.34,1.07.67,1.31.22.16.48.22.77.17.37-.06.65-.24.85-.55l.05-.08.02.1c.02.15.05.29.07.42.14.88.22,1.32.05,1.55-.07.09-.17.15-.33.18-.16.03-.31-.03-.41-.16-.07-.09-.12-.23-.15-.41l-1.07.17c.08.52.25.88.52,1.08.28.21.67.26,1.22.17,1.65-.27,1.38-1.96,1.14-3.45ZM48.28,77.09c-.07.1-.17.15-.29.17-.03,0-.05,0-.08,0-.46,0-.57-.68-.63-1.06-.06-.38-.19-1.16.35-1.25.03,0,.05,0,.08,0,.48,0,.59.73.64,1.05.06.37.1.82-.08,1.08Z"/>
        <path class="cls-4" d="M47.71,74.96s-.05,0-.08,0c-.54.09-.41.87-.35,1.25.06.37.17,1.06.63,1.06.03,0,.05,0,.08,0,.12-.02.22-.08.29-.17.18-.25.14-.71.08-1.08-.05-.32-.17-1.05-.64-1.05Z"/>
      </g>
      <rect class="cls-3" x="33.22" y="76.29" width=".91" height=".91" transform="translate(-49.31 88.4) rotate(-74.3)"/>
      <rect class="cls-3" x="50.93" y="76.29" width=".91" height=".91" transform="translate(-18.85 16.76) rotate(-15.7)"/>
    </g>
  </g>
</svg>