<svg width="64" height="64" viewBox="0 0 64 64" fill="none" xmlns="http://www.w3.org/2000/svg">
<path d="M38.5067 15.4134L11.1947 42.72C10.3827 43.5318 9.85424 44.5839 9.68805 45.72L8.21338 55.784L18.28 54.3094C19.4165 54.1424 20.4687 53.6131 21.28 52.8L48.5867 25.4934M38.5067 15.4134L44.4507 9.4667C44.8469 9.0704 45.3173 8.75603 45.835 8.54155C46.3528 8.32707 46.9077 8.21667 47.468 8.21667C48.0284 8.21667 48.5833 8.32707 49.1011 8.54155C49.6188 8.75603 50.0892 9.0704 50.4854 9.4667L54.5334 13.5147C54.9297 13.9109 55.244 14.3813 55.4585 14.899C55.673 15.4167 55.7834 15.9716 55.7834 16.532C55.7834 17.0924 55.673 17.6473 55.4585 18.165C55.244 18.6828 54.9297 19.1532 54.5334 19.5494L48.5867 25.4934M38.5067 15.4134L48.5867 25.4934" stroke="black" stroke-width="3" stroke-linecap="round" stroke-linejoin="round"/>
</svg>
