<svg width="64" height="64" viewBox="0 0 64 64" fill="none" xmlns="http://www.w3.org/2000/svg">
<path d="M53.3334 26.6666L54.2774 27.6106L55.2188 26.6666L54.2774 25.7226L53.3334 26.6666ZM9.33341 48C9.33341 48.3536 9.47389 48.6927 9.72394 48.9428C9.97398 49.1928 10.3131 49.3333 10.6667 49.3333C11.0204 49.3333 11.3595 49.1928 11.6096 48.9428C11.8596 48.6927 12.0001 48.3536 12.0001 48H9.33341ZM40.9441 40.944L54.2774 27.6106L52.3894 25.7226L39.0561 39.056L40.9441 40.944ZM54.2774 25.7226L40.9441 12.3893L39.0561 14.2773L52.3894 27.6106L54.2774 25.7226ZM53.3334 25.3333H26.6667V27.9999H53.3334V25.3333ZM9.33341 42.6666V48H12.0001V42.6666H9.33341ZM26.6667 25.3333C22.0697 25.3333 17.6609 27.1595 14.4102 30.4101C11.1596 33.6607 9.33341 38.0695 9.33341 42.6666H12.0001C12.0001 38.7768 13.5453 35.0462 16.2958 32.2957C19.0464 29.5452 22.7769 27.9999 26.6667 27.9999V25.3333Z" fill="black"/>
</svg>
