<svg width="64" height="64" viewBox="0 0 64 64" fill="none" xmlns="http://www.w3.org/2000/svg">
<path d="M10.6666 26.6666L9.72258 27.6106L8.78125 26.6666L9.72258 25.7226L10.6666 26.6666ZM54.6666 48C54.6666 48.3536 54.5261 48.6927 54.2761 48.9428C54.026 49.1928 53.6869 49.3333 53.3333 49.3333C52.9796 49.3333 52.6405 49.1928 52.3904 48.9428C52.1404 48.6927 51.9999 48.3536 51.9999 48H54.6666ZM23.0559 40.944L9.72258 27.6106L11.6106 25.7226L24.9439 39.056L23.0559 40.944ZM9.72258 25.7226L23.0559 12.3893L24.9439 14.2773L11.6106 27.6106L9.72258 25.7226ZM10.6666 25.3333H37.3333V27.9999H10.6666V25.3333ZM54.6666 42.6666V48H51.9999V42.6666H54.6666ZM37.3333 25.3333C41.9303 25.3333 46.3391 27.1595 49.5898 30.4101C52.8404 33.6607 54.6666 38.0695 54.6666 42.6666H51.9999C51.9999 38.7768 50.4547 35.0462 47.7042 32.2957C44.9536 29.5452 41.2231 27.9999 37.3333 27.9999V25.3333Z" fill="black"/>
</svg>
